<?xml version="1.0" standalone="no"?>
<svg xmlns="http://www.w3.org/2000/svg" viewBox="0 0 263.48 52.959999999999994" width="263.48" height="52.959999999999994"><rect fill="#0b0cac" width="263.48" height="52.959999999999994" x="0" y="0"></rect><g fill="white" color="white" transform="translate(12 12) scale(0.2896)"><svg width="100.0" height="100.0" x="0.0" y="0.0" viewBox="0 0 100 100"><g display="none"><path display="inline" d="M60.267,14.063L14.065,60.27l25.668,25.667l46.201-46.204V14.063H60.267z M72.624,32.219   c-2.671,0-4.84-2.174-4.84-4.841c0-2.678,2.169-4.844,4.84-4.844s4.836,2.166,4.836,4.844   C77.46,30.045,75.295,32.219,72.624,32.219z"></path></g><g display="none"><path display="inline" d="M71.686,85.706L69,60l16.982-17.541L62,39L50.001,13.98L38,39l-23.982,3.284L31,60l-2.692,25.676   L49.98,72c0.017,0,0.028,0,0.049,0L71.686,85.706z"></path></g><g display="none"><path display="inline" d="M50,17.06c-18.194,0-32.941,14.747-32.941,32.945C17.06,68.192,31.806,82.94,50,82.94   c18.192,0,32.94-14.748,32.94-32.936C82.94,31.807,68.192,17.06,50,17.06z M53.117,73.733V61.981H47.13v11.789   C36.2,72.458,27.52,63.769,26.225,52.831h11.755v-5.993H26.275c1.429-10.777,10.036-19.306,20.855-20.605v11.456h5.987V26.27   c10.701,1.403,19.188,9.875,20.609,20.568H62.274v5.993h11.5C72.488,63.684,63.932,72.317,53.117,73.733z"></path></g><g display="none"><rect x="14" y="36" display="inline" width="72" height="27"></rect></g><g><polygon points="14.033,14.036 44.019,14.036 80,50.018 44.019,86 14.033,86 50.016,50.018  "></polygon></g></svg></g><path fill="white" fill-rule="nonzero" d="M21.40 20.32L21.40 20.32Q21.40 24.36 18.44 26.66Q15.48 28.96 10.88 28.96L10.88 28.96Q7.24 28.96 3.84 26.96L3.84 26.96Q2.16 25.92 1.08 24.02Q0 22.12 0 19.68L0 19.68L5.04 19.44Q5.04 21.60 6.88 22.80Q8.72 24 10.96 24L10.96 24Q15.96 24 15.96 20.48L15.96 20.48Q15.96 17.60 12.56 17.08L12.56 17.08L7.92 16.60Q4.44 16.08 2.40 14.12Q0.36 12.16 0.36 8.48Q0.36 4.80 3.28 2.40Q6.20 0 10.66 0Q15.12 0 17.84 2.26Q20.56 4.52 20.56 8.08L20.56 8.08L15.60 8.32Q14.92 4.84 10.92 4.84L10.92 4.84Q8.48 4.84 7.10 5.88Q5.72 6.92 5.72 8.34Q5.72 9.76 6.72 10.58Q7.72 11.40 9.20 11.60L9.20 11.60L13.76 12.08Q21.40 13.12 21.40 20.32ZM43.82 2.70Q46.28 5.16 46.28 9.92Q46.28 14.68 43.82 17.14Q41.36 19.60 36.88 19.60L36.88 19.60L31.40 19.60L31.40 28.72L25.84 28.72L25.84 0.24L36.88 0.24Q41.36 0.24 43.82 2.70ZM40.72 9.92L40.72 9.92Q40.72 5.20 36.60 5.20L36.60 5.20L31.40 5.20L31.40 14.60L36.60 14.60Q38.60 14.60 39.66 13.52Q40.72 12.44 40.72 9.92ZM64.36 0.24L70.40 0.24L61.84 17.04L61.84 28.72L56.32 28.72L56.32 17.04L47.76 0.24L53.80 0.24L59.12 11.72L64.36 0.24ZM95.32 14.36L95.32 14.36L95.36 17.44Q95.20 20.36 94.64 22.36Q94.08 24.36 92.44 26L92.44 26Q89.72 28.72 84.52 28.72L84.52 28.72Q78.40 28.72 76.12 27.10Q73.84 25.48 73.84 21.24L73.84 21.24L73.84 0.24L84.92 0.24Q89.72 0.24 92.44 2.96L92.44 2.96Q94.64 5.16 95.04 8.32L95.04 8.32Q95.32 10.56 95.32 14.36ZM88.56 22Q89.32 21.08 89.54 19.46Q89.76 17.84 89.76 14.40Q89.76 10.96 89.54 9.42Q89.32 7.88 88.56 6.96L88.56 6.96Q87.12 5.20 84.40 5.20L84.40 5.20L79.40 5.20L79.40 20.96Q79.40 22.56 80.48 23.16Q81.56 23.76 84.34 23.76Q87.12 23.76 88.56 22L88.56 22ZM118.96 23.76L118.96 28.72L108.88 28.72Q104.08 28.72 102.14 27.06Q100.20 25.40 100.20 21.20L100.20 21.20L100.20 0.24L118.96 0.24L118.96 5.20L105.76 5.20L105.76 11.88L115 11.88L114.60 16.84L105.76 16.84L105.76 20.80Q105.76 22.48 106.52 23.12Q107.28 23.76 109.28 23.76L109.28 23.76L118.96 23.76ZM139.60 17.24L145.96 28.72L139.52 28.72L133.96 18.16L129.96 18.16L129.96 28.72L124.40 28.72L124.40 6.36Q124.40 3.16 125.88 1.70Q127.36 0.24 130.84 0.24L130.84 0.24L135.56 0.24Q139.80 0.24 142.30 2.82Q144.80 5.40 144.80 9.36L144.80 9.36Q144.80 12.24 143.30 14.34Q141.80 16.44 139.60 17.24L139.60 17.24ZM135.20 13.52Q136.96 13.52 138.10 12.30Q139.24 11.08 139.24 9.26Q139.24 7.44 138.14 6.32Q137.04 5.20 135.20 5.20L135.20 5.20L132.44 5.20Q129.96 5.20 129.96 7.72L129.96 7.72L129.96 13.52L135.20 13.52ZM171.44 13.16L171.44 13.16L171.44 15.32Q171.44 22.48 168.74 25.72Q166.04 28.96 160.08 28.96Q154.12 28.96 151.46 25.72Q148.80 22.48 148.80 15.20L148.80 15.20L148.80 13.12Q148.80 6.48 151.50 3.24Q154.20 0 160.06 0Q165.92 0 168.68 3.28Q171.44 6.56 171.44 13.16ZM165.88 15.20L165.88 15.20L165.88 13.72Q165.88 9.88 164.92 7.60L164.92 7.60Q163.80 4.96 160.12 4.96L160.12 4.96Q156.40 4.96 155.28 7.60L155.28 7.60Q154.36 9.76 154.36 13.72L154.36 13.72L154.36 15.20Q154.36 20.36 155.80 22.16L155.80 22.16Q156.36 22.92 157.46 23.46Q158.56 24 160.10 24Q161.64 24 162.72 23.48Q163.80 22.96 164.40 22.20Q165 21.44 165.32 20.20L165.32 20.20Q165.88 18.24 165.88 15.20ZM195.52 20.32L195.52 20.32Q195.52 24.36 192.56 26.66Q189.60 28.96 185 28.96L185 28.96Q181.36 28.96 177.96 26.96L177.96 26.96Q176.28 25.92 175.20 24.02Q174.12 22.12 174.12 19.68L174.12 19.68L179.16 19.44Q179.16 21.60 181 22.80Q182.84 24 185.08 24L185.08 24Q190.08 24 190.08 20.48L190.08 20.48Q190.08 17.60 186.68 17.08L186.68 17.08L182.04 16.60Q178.56 16.08 176.52 14.12Q174.48 12.16 174.48 8.48Q174.48 4.80 177.40 2.40Q180.32 0 184.78 0Q189.24 0 191.96 2.26Q194.68 4.52 194.68 8.08L194.68 8.08L189.72 8.32Q189.04 4.84 185.04 4.84L185.04 4.84Q182.60 4.84 181.22 5.88Q179.84 6.92 179.84 8.34Q179.84 9.76 180.84 10.58Q181.84 11.40 183.32 11.60L183.32 11.60L187.88 12.08Q195.52 13.12 195.52 20.32Z" transform="translate(55.96 12) scale(1)"></path></svg>